<svg width="261" height="100" viewBox="0 0 261 100" fill="none" xmlns="http://www.w3.org/2000/svg">
<g clip-path="url(#clip0_1_18747)">
<path d="M125.493 49.9986C125.493 36.7382 120.225 24.0208 110.849 14.6442C101.472 5.2677 88.755 1.7389e-06 75.4946 0C62.2342 -1.73889e-06 49.5169 5.2677 40.1404 14.6442C30.7638 24.0208 25.4961 36.7382 25.4961 49.9986H41.1208C46.2984 49.9986 50.3363 45.6597 52.2327 40.8418C53.4778 37.6787 55.3671 34.7718 57.8173 32.3213C62.5056 27.6331 68.8644 24.9993 75.4946 24.9993C82.1248 24.9993 88.4836 27.6331 93.1719 32.3213C97.8602 37.0096 100.494 43.3684 100.494 49.9986H125.493Z" fill="url(#paint0_linear_1_18747)"/>
<path d="M96.6907 69.1352C99.2034 63.069 100.497 56.5675 100.497 50.0017H125.493C125.493 77.6151 103.108 100 75.4948 100C71.1704 100 66.974 99.4511 62.9722 98.4191C65.2364 97.8357 67.4619 97.0928 69.6317 96.1942C75.6979 93.6815 81.2096 89.9988 85.8525 85.356C90.4953 80.7131 94.1783 75.2013 96.6907 69.1352Z" fill="#4392F9"/>
<path d="M0.499931 49.9954C0.49993 56.5615 1.79318 63.0631 4.30584 69.1292C6.81851 75.1954 10.5014 80.7072 15.1442 85.35C19.7869 89.9925 25.2988 93.6755 31.3648 96.1882C37.4309 98.7009 43.9325 99.994 50.4985 99.994C57.0643 99.994 63.5658 98.7009 69.632 96.1882C75.6981 93.6755 81.2099 89.9925 85.8528 85.35C90.4956 80.7072 94.1783 75.1954 96.691 69.1292C99.2037 63.0631 100.497 56.5615 100.497 49.9954H84.8723C79.6948 49.9954 75.6569 54.3343 73.7604 59.1519C73.7066 59.2892 73.6512 59.4258 73.5948 59.5625C72.3384 62.5954 70.4971 65.3515 68.1755 67.6727C65.8542 69.994 63.0982 71.8356 60.0653 73.092C57.0323 74.3483 53.7816 74.9949 50.4985 74.9949C47.2155 74.9949 43.9647 74.3483 40.9318 73.092C37.8986 71.8356 35.1428 69.994 32.8212 67.6727C30.4999 65.3515 28.6585 62.5954 27.4022 59.5625C26.1458 56.5293 25.4992 53.2785 25.4992 49.9954H0.499931Z" fill="url(#paint1_linear_1_18747)"/>
<path d="M0.504654 49.9986C0.504654 22.385 22.8897 0 50.503 0C54.8264 0 59.0216 0.548716 63.023 1.58035C54.4371 3.79217 46.5167 8.26832 40.1405 14.6443C30.764 24.0207 25.4963 36.7382 25.4963 49.9986H0.504654Z" fill="#F83758"/>
<path d="M141.903 64V62.54L146.643 61.66V35.7H140.203C139.35 36.78 138.623 37.9333 138.023 39.16C137.437 40.3867 136.95 41.54 136.563 42.62H135.023L136.463 33.54H163.483L164.943 42.62H163.403C163.003 41.54 162.53 40.3867 161.983 39.16C161.437 37.9333 160.737 36.78 159.883 35.7H153.423V61.66L158.123 62.54V64H141.903ZM164.374 64V62.6L167.354 61.82V46.58L164.334 45.46V44.52L172.434 42.62H173.294V46.24L173.454 46.42V61.82L178.654 62.6V64H164.374ZM173.014 49.12L173.074 46.42C174.128 45.18 175.168 44.2333 176.194 43.58C177.234 42.9133 178.241 42.58 179.214 42.58C180.201 42.58 181.021 42.86 181.674 43.42C182.328 43.98 182.654 44.6733 182.654 45.5C182.654 46.3 182.414 46.9733 181.934 47.52C181.468 48.0533 180.888 48.32 180.194 48.32C179.501 48.32 178.848 48.0733 178.234 47.58C177.848 47.2467 177.501 47.0067 177.194 46.86C176.901 46.7 176.588 46.62 176.254 46.62C175.788 46.62 175.228 46.8733 174.574 47.38C173.934 47.8733 173.414 48.4533 173.014 49.12ZM194.735 64.42C192.548 64.42 190.635 63.98 188.995 63.1C187.368 62.2067 186.101 60.9667 185.195 59.38C184.301 57.78 183.855 55.9333 183.855 53.84C183.855 51.6133 184.355 49.66 185.355 47.98C186.355 46.3 187.741 44.9867 189.515 44.04C191.301 43.0933 193.368 42.62 195.715 42.62C198.741 42.62 201.041 43.44 202.615 45.08C204.201 46.7067 205.041 49.1067 205.135 52.28L204.835 52.54H187.555V50.74L198.575 50.34C198.681 50.06 198.735 49.56 198.735 48.84C198.735 46.04 197.561 44.64 195.215 44.64C193.681 44.64 192.501 45.3067 191.675 46.64C190.861 47.9733 190.455 49.8667 190.455 52.32C190.455 57.6533 192.515 60.32 196.635 60.32C199.488 60.32 201.735 59.3467 203.375 57.4L204.475 58.34C203.768 60.26 202.555 61.7533 200.835 62.82C199.128 63.8867 197.095 64.42 194.735 64.42ZM221.141 64V62.6L223.921 61.82V50.98C223.921 49.3533 223.594 48.1533 222.941 47.38C222.288 46.5933 221.308 46.2 220.001 46.2C218.348 46.2 217.028 46.9067 216.041 48.32V45.82C216.988 44.86 218.101 44.0867 219.381 43.5C220.674 42.9133 222.114 42.62 223.701 42.62C227.941 42.62 230.061 44.94 230.061 49.58V61.82L233.041 62.6V64H221.141ZM207.421 64V62.6L210.401 61.82V46.58L207.381 45.46V44.56L215.461 42.62H216.341V46L216.501 46.2V61.82L219.301 62.6V64H207.421ZM244.243 64.42C242.563 64.42 241.036 63.96 239.663 63.04C238.303 62.12 237.223 60.8667 236.423 59.28C235.623 57.68 235.223 55.8733 235.223 53.86C235.223 51.6467 235.683 49.7 236.603 48.02C237.523 46.3267 238.796 45.0067 240.423 44.06C242.05 43.1 243.923 42.62 246.043 42.62C247.576 42.62 249.103 42.9533 250.623 43.62V35.1L247.263 34V33.08L255.903 31.14H256.763V60.14L259.903 61.12V61.92L251.663 64.42H250.943V61.98L250.743 61.9C249.93 62.7 248.963 63.32 247.843 63.76C246.736 64.2 245.536 64.42 244.243 64.42ZM246.783 61.56C247.57 61.56 248.29 61.3733 248.943 61C249.596 60.6267 250.156 60.12 250.623 59.48V49.68C250.623 48.2133 250.276 47.0267 249.583 46.12C248.89 45.2133 247.97 44.76 246.823 44.76C245.37 44.76 244.196 45.54 243.303 47.1C242.423 48.6467 241.983 50.68 241.983 53.2C241.983 55.76 242.403 57.7933 243.243 59.3C244.096 60.8067 245.276 61.56 246.783 61.56Z" fill="#F83758"/>
</g>
<defs>
<linearGradient id="paint0_linear_1_18747" x1="125.493" y1="24.9993" x2="25.4961" y2="24.9993" gradientUnits="userSpaceOnUse">
<stop stop-color="#CFE2FC"/>
<stop offset="1" stop-color="#4392F9"/>
</linearGradient>
<linearGradient id="paint1_linear_1_18747" x1="0.499935" y1="74.9949" x2="100.497" y2="74.9949" gradientUnits="userSpaceOnUse">
<stop stop-color="#F8BCC6"/>
<stop offset="1" stop-color="#F83758"/>
</linearGradient>
<clipPath id="clip0_1_18747">
<rect width="259.993" height="100" fill="white" transform="translate(0.499931)"/>
</clipPath>
</defs>
</svg>
